<?xml version="1.0" encoding="UTF-8" standalone="no"?>
<!DOCTYPE svg PUBLIC "-//W3C//DTD SVG 1.1//EN"
 "http://www.w3.org/Graphics/SVG/1.1/DTD/svg11.dtd">
<!-- Generated by graphviz version 5.0.0 (20220707.1540)
 -->
<!-- Title: dependencies Pages: 1 -->
<svg width="938pt" height="247pt"
 viewBox="0.00 0.00 938.00 246.80" xmlns="http://www.w3.org/2000/svg" xmlns:xlink="http://www.w3.org/1999/xlink">
<g id="graph0" class="graph" transform="scale(1 1) rotate(0) translate(4 242.8)">
<title>dependencies</title>
<polygon fill="white" stroke="transparent" points="-4,4 -4,-242.8 934,-242.8 934,4 -4,4"/>
<text text-anchor="middle" x="465" y="-8.2" font-family="sans-serif" font-size="14.00">dependencies</text>
<g id="clust1" class="cluster">
<title>cluster_SharedModule</title>
<polygon fill="none" stroke="black" stroke-dasharray="1,5" points="8,-32.8 8,-230.8 922,-230.8 922,-32.8 8,-32.8"/>
</g>
<g id="clust10" class="cluster">
<title>cluster_SharedModule_exports</title>
<polygon fill="none" stroke="black" points="52,-170.8 52,-222.8 877,-222.8 877,-170.8 52,-170.8"/>
</g>
<g id="clust2" class="cluster">
<title>cluster_SharedModule_declarations</title>
<polygon fill="none" stroke="black" points="16,-40.8 16,-92.8 914,-92.8 914,-40.8 16,-40.8"/>
</g>
<!-- ColleagueComponent -->
<g id="node1" class="node">
<title>ColleagueComponent</title>
<polygon fill="#ffffb3" stroke="black" points="906.09,-84.8 767.91,-84.8 767.91,-48.8 906.09,-48.8 906.09,-84.8"/>
<text text-anchor="middle" x="837" y="-62.6" font-family="Times,serif" font-size="14.00">ColleagueComponent</text>
</g>
<!-- SharedModule -->
<g id="node7" class="node">
<title>SharedModule</title>
<polygon fill="#8dd3c7" stroke="black" points="512.43,-149.8 509.43,-153.8 488.43,-153.8 485.43,-149.8 413.57,-149.8 413.57,-113.8 512.43,-113.8 512.43,-149.8"/>
<text text-anchor="middle" x="463" y="-127.6" font-family="Times,serif" font-size="14.00">SharedModule</text>
</g>
<!-- ColleagueComponent&#45;&gt;SharedModule -->
<g id="edge1" class="edge">
<title>ColleagueComponent&#45;&gt;SharedModule</title>
<path fill="none" stroke="black" d="M818.38,-85.07C818.38,-103.36 818.38,-128.8 818.38,-128.8 818.38,-128.8 522.41,-128.8 522.41,-128.8"/>
<polygon fill="black" stroke="black" points="522.41,-125.3 512.41,-128.8 522.41,-132.3 522.41,-125.3"/>
</g>
<!-- ColleagueListComponent -->
<g id="node2" class="node">
<title>ColleagueListComponent</title>
<polygon fill="#ffffb3" stroke="black" points="749.87,-84.8 590.13,-84.8 590.13,-48.8 749.87,-48.8 749.87,-84.8"/>
<text text-anchor="middle" x="670" y="-62.6" font-family="Times,serif" font-size="14.00">ColleagueListComponent</text>
</g>
<!-- ColleagueListComponent&#45;&gt;SharedModule -->
<g id="edge2" class="edge">
<title>ColleagueListComponent&#45;&gt;SharedModule</title>
<path fill="none" stroke="black" d="M649.88,-84.81C649.88,-100.85 649.88,-121.8 649.88,-121.8 649.88,-121.8 522.59,-121.8 522.59,-121.8"/>
<polygon fill="black" stroke="black" points="522.59,-118.3 512.59,-121.8 522.59,-125.3 522.59,-118.3"/>
</g>
<!-- CounterComponent -->
<g id="node3" class="node">
<title>CounterComponent</title>
<polygon fill="#ffffb3" stroke="black" points="572.44,-84.8 445.56,-84.8 445.56,-48.8 572.44,-48.8 572.44,-84.8"/>
<text text-anchor="middle" x="509" y="-62.6" font-family="Times,serif" font-size="14.00">CounterComponent</text>
</g>
<!-- CounterComponent&#45;&gt;SharedModule -->
<g id="edge3" class="edge">
<title>CounterComponent&#45;&gt;SharedModule</title>
<path fill="none" stroke="black" d="M479,-84.91C479,-84.91 479,-103.79 479,-103.79"/>
<polygon fill="black" stroke="black" points="475.5,-103.79 479,-113.79 482.5,-103.79 475.5,-103.79"/>
</g>
<!-- LikeHateComponent -->
<g id="node4" class="node">
<title>LikeHateComponent</title>
<polygon fill="#ffffb3" stroke="black" points="427.91,-84.8 294.09,-84.8 294.09,-48.8 427.91,-48.8 427.91,-84.8"/>
<text text-anchor="middle" x="361" y="-62.6" font-family="Times,serif" font-size="14.00">LikeHateComponent</text>
</g>
<!-- LikeHateComponent&#45;&gt;SharedModule -->
<g id="edge4" class="edge">
<title>LikeHateComponent&#45;&gt;SharedModule</title>
<path fill="none" stroke="black" d="M420.75,-84.91C420.75,-84.91 420.75,-103.79 420.75,-103.79"/>
<polygon fill="black" stroke="black" points="417.25,-103.79 420.75,-113.79 424.25,-103.79 417.25,-103.79"/>
</g>
<!-- ScorePipe -->
<g id="node5" class="node">
<title>ScorePipe</title>
<polygon fill="#ffffb3" stroke="black" points="276.27,-84.8 203.73,-84.8 203.73,-48.8 276.27,-48.8 276.27,-84.8"/>
<text text-anchor="middle" x="240" y="-62.6" font-family="Times,serif" font-size="14.00">ScorePipe</text>
</g>
<!-- ScorePipe&#45;&gt;SharedModule -->
<g id="edge5" class="edge">
<title>ScorePipe&#45;&gt;SharedModule</title>
<path fill="none" stroke="black" d="M259.96,-84.81C259.96,-100.85 259.96,-121.8 259.96,-121.8 259.96,-121.8 403.59,-121.8 403.59,-121.8"/>
<polygon fill="black" stroke="black" points="403.59,-125.3 413.59,-121.8 403.59,-118.3 403.59,-125.3"/>
</g>
<!-- VotingHistoryComponent -->
<g id="node6" class="node">
<title>VotingHistoryComponent</title>
<polygon fill="#ffffb3" stroke="black" points="186.22,-84.8 23.78,-84.8 23.78,-48.8 186.22,-48.8 186.22,-84.8"/>
<text text-anchor="middle" x="105" y="-62.6" font-family="Times,serif" font-size="14.00">VotingHistoryComponent</text>
</g>
<!-- VotingHistoryComponent&#45;&gt;SharedModule -->
<g id="edge6" class="edge">
<title>VotingHistoryComponent&#45;&gt;SharedModule</title>
<path fill="none" stroke="black" d="M123.12,-85.07C123.12,-103.36 123.12,-128.8 123.12,-128.8 123.12,-128.8 403.58,-128.8 403.58,-128.8"/>
<polygon fill="black" stroke="black" points="403.58,-132.3 413.58,-128.8 403.58,-125.3 403.58,-132.3"/>
</g>
<!-- ColleagueComponent  -->
<g id="node8" class="node">
<title>ColleagueComponent </title>
<polygon fill="#fb8072" stroke="black" points="868.59,-214.8 727.41,-214.8 727.41,-178.8 868.59,-178.8 868.59,-214.8"/>
<text text-anchor="middle" x="798" y="-192.6" font-family="Times,serif" font-size="14.00">ColleagueComponent </text>
</g>
<!-- SharedModule&#45;&gt;ColleagueComponent  -->
<g id="edge7" class="edge">
<title>SharedModule&#45;&gt;ColleagueComponent </title>
<path fill="none" stroke="black" stroke-dasharray="5,2" d="M512.27,-135.8C591.53,-135.8 738.57,-135.8 738.57,-135.8 738.57,-135.8 738.57,-168.5 738.57,-168.5"/>
<polygon fill="black" stroke="black" points="735.07,-168.5 738.57,-178.5 742.07,-168.5 735.07,-168.5"/>
</g>
<!-- ColleagueListComponent  -->
<g id="node9" class="node">
<title>ColleagueListComponent </title>
<polygon fill="#fb8072" stroke="black" points="709.87,-214.8 546.13,-214.8 546.13,-178.8 709.87,-178.8 709.87,-214.8"/>
<text text-anchor="middle" x="628" y="-192.6" font-family="Times,serif" font-size="14.00">ColleagueListComponent </text>
</g>
<!-- SharedModule&#45;&gt;ColleagueListComponent  -->
<g id="edge8" class="edge">
<title>SharedModule&#45;&gt;ColleagueListComponent </title>
<path fill="none" stroke="black" stroke-dasharray="5,2" d="M512.26,-142.8C535.95,-142.8 559.27,-142.8 559.27,-142.8 559.27,-142.8 559.27,-168.52 559.27,-168.52"/>
<polygon fill="black" stroke="black" points="555.77,-168.52 559.27,-178.52 562.77,-168.52 555.77,-168.52"/>
</g>
<!-- CounterComponent  -->
<g id="node10" class="node">
<title>CounterComponent </title>
<polygon fill="#fb8072" stroke="black" points="527.93,-214.8 398.07,-214.8 398.07,-178.8 527.93,-178.8 527.93,-214.8"/>
<text text-anchor="middle" x="463" y="-192.6" font-family="Times,serif" font-size="14.00">CounterComponent </text>
</g>
<!-- SharedModule&#45;&gt;CounterComponent  -->
<g id="edge9" class="edge">
<title>SharedModule&#45;&gt;CounterComponent </title>
<path fill="none" stroke="black" stroke-dasharray="5,2" d="M463,-149.91C463,-149.91 463,-168.79 463,-168.79"/>
<polygon fill="black" stroke="black" points="459.5,-168.79 463,-178.79 466.5,-168.79 459.5,-168.79"/>
</g>
<!-- LikeHateComponent  -->
<g id="node11" class="node">
<title>LikeHateComponent </title>
<polygon fill="#fb8072" stroke="black" points="380.41,-214.8 243.59,-214.8 243.59,-178.8 380.41,-178.8 380.41,-214.8"/>
<text text-anchor="middle" x="312" y="-192.6" font-family="Times,serif" font-size="14.00">LikeHateComponent </text>
</g>
<!-- SharedModule&#45;&gt;LikeHateComponent  -->
<g id="edge10" class="edge">
<title>SharedModule&#45;&gt;LikeHateComponent </title>
<path fill="none" stroke="black" stroke-dasharray="5,2" d="M413.71,-142.8C378.52,-142.8 337.38,-142.8 337.38,-142.8 337.38,-142.8 337.38,-168.52 337.38,-168.52"/>
<polygon fill="black" stroke="black" points="333.88,-168.52 337.38,-178.52 340.88,-168.52 333.88,-168.52"/>
</g>
<!-- VotingHistoryComponent  -->
<g id="node12" class="node">
<title>VotingHistoryComponent </title>
<polygon fill="#fb8072" stroke="black" points="225.72,-214.8 60.28,-214.8 60.28,-178.8 225.72,-178.8 225.72,-214.8"/>
<text text-anchor="middle" x="143" y="-192.6" font-family="Times,serif" font-size="14.00">VotingHistoryComponent </text>
</g>
<!-- SharedModule&#45;&gt;VotingHistoryComponent  -->
<g id="edge11" class="edge">
<title>SharedModule&#45;&gt;VotingHistoryComponent </title>
<path fill="none" stroke="black" stroke-dasharray="5,2" d="M413.65,-135.8C341.25,-135.8 214.74,-135.8 214.74,-135.8 214.74,-135.8 214.74,-168.5 214.74,-168.5"/>
<polygon fill="black" stroke="black" points="211.24,-168.5 214.74,-178.5 218.24,-168.5 211.24,-168.5"/>
</g>
</g>
</svg>
