<?xml version="1.0" encoding="UTF-8" standalone="no"?>
<!DOCTYPE svg PUBLIC "-//W3C//DTD SVG 1.1//EN"
 "http://www.w3.org/Graphics/SVG/1.1/DTD/svg11.dtd">
<!-- Generated by graphviz version 5.0.0 (20220707.1540)
 -->
<!-- Title: dependencies Pages: 1 -->
<svg width="274pt" height="247pt"
 viewBox="0.00 0.00 274.00 246.80" xmlns="http://www.w3.org/2000/svg" xmlns:xlink="http://www.w3.org/1999/xlink">
<g id="graph0" class="graph" transform="scale(1 1) rotate(0) translate(4 242.8)">
<title>dependencies</title>
<polygon fill="white" stroke="transparent" points="-4,4 -4,-242.8 270,-242.8 270,4 -4,4"/>
<text text-anchor="middle" x="133" y="-8.2" font-family="sans-serif" font-size="14.00">dependencies</text>
<g id="clust1" class="cluster">
<title>cluster_WelcomeModule</title>
<polygon fill="none" stroke="black" stroke-dasharray="1,5" points="8,-32.8 8,-230.8 258,-230.8 258,-32.8 8,-32.8"/>
</g>
<g id="clust4" class="cluster">
<title>cluster_WelcomeModule_imports</title>
<polygon fill="none" stroke="black" points="136,-40.8 136,-92.8 250,-92.8 250,-40.8 136,-40.8"/>
</g>
<g id="clust5" class="cluster">
<title>cluster_WelcomeModule_exports</title>
<polygon fill="none" stroke="black" points="75,-170.8 75,-222.8 191,-222.8 191,-170.8 75,-170.8"/>
</g>
<g id="clust2" class="cluster">
<title>cluster_WelcomeModule_declarations</title>
<polygon fill="none" stroke="black" points="16,-40.8 16,-92.8 128,-92.8 128,-40.8 16,-40.8"/>
</g>
<!-- WelcomePage -->
<g id="node1" class="node">
<title>WelcomePage</title>
<polygon fill="#ffffb3" stroke="black" points="120.35,-84.8 23.65,-84.8 23.65,-48.8 120.35,-48.8 120.35,-84.8"/>
<text text-anchor="middle" x="72" y="-62.6" font-family="Times,serif" font-size="14.00">WelcomePage</text>
</g>
<!-- WelcomeModule -->
<g id="node2" class="node">
<title>WelcomeModule</title>
<polygon fill="#8dd3c7" stroke="black" points="189.69,-149.8 186.69,-153.8 165.69,-153.8 162.69,-149.8 76.31,-149.8 76.31,-113.8 189.69,-113.8 189.69,-149.8"/>
<text text-anchor="middle" x="133" y="-127.6" font-family="Times,serif" font-size="14.00">WelcomeModule</text>
</g>
<!-- WelcomePage&#45;&gt;WelcomeModule -->
<g id="edge1" class="edge">
<title>WelcomePage&#45;&gt;WelcomeModule</title>
<path fill="none" stroke="black" d="M98.42,-84.91C98.42,-84.91 98.42,-103.79 98.42,-103.79"/>
<polygon fill="black" stroke="black" points="94.92,-103.79 98.42,-113.79 101.92,-103.79 94.92,-103.79"/>
</g>
<!-- WelcomePage  -->
<g id="node4" class="node">
<title>WelcomePage </title>
<polygon fill="#fb8072" stroke="black" points="183.35,-214.8 82.65,-214.8 82.65,-178.8 183.35,-178.8 183.35,-214.8"/>
<text text-anchor="middle" x="133" y="-192.6" font-family="Times,serif" font-size="14.00">WelcomePage </text>
</g>
<!-- WelcomeModule&#45;&gt;WelcomePage  -->
<g id="edge3" class="edge">
<title>WelcomeModule&#45;&gt;WelcomePage </title>
<path fill="none" stroke="black" stroke-dasharray="5,2" d="M133,-149.91C133,-149.91 133,-168.79 133,-168.79"/>
<polygon fill="black" stroke="black" points="129.5,-168.79 133,-178.79 136.5,-168.79 129.5,-168.79"/>
</g>
<!-- SharedModule -->
<g id="node3" class="node">
<title>SharedModule</title>
<polygon fill="#8dd3c7" stroke="black" points="242.43,-84.8 239.43,-88.8 218.43,-88.8 215.43,-84.8 143.57,-84.8 143.57,-48.8 242.43,-48.8 242.43,-84.8"/>
<text text-anchor="middle" x="193" y="-62.6" font-family="Times,serif" font-size="14.00">SharedModule</text>
</g>
<!-- SharedModule&#45;&gt;WelcomeModule -->
<g id="edge2" class="edge">
<title>SharedModule&#45;&gt;WelcomeModule</title>
<path fill="none" stroke="black" d="M166.69,-84.91C166.69,-84.91 166.69,-103.79 166.69,-103.79"/>
<polygon fill="black" stroke="black" points="163.19,-103.79 166.69,-113.79 170.19,-103.79 163.19,-103.79"/>
</g>
</g>
</svg>
