<?xml version="1.0" encoding="UTF-8" standalone="no"?>
<!DOCTYPE svg PUBLIC "-//W3C//DTD SVG 1.1//EN"
 "http://www.w3.org/Graphics/SVG/1.1/DTD/svg11.dtd">
<!-- Generated by graphviz version 5.0.0 (20220707.1540)
 -->
<!-- Title: dependencies Pages: 1 -->
<svg width="1148pt" height="247pt"
 viewBox="0.00 0.00 1148.00 246.80" xmlns="http://www.w3.org/2000/svg" xmlns:xlink="http://www.w3.org/1999/xlink">
<g id="graph0" class="graph" transform="scale(1 1) rotate(0) translate(4 242.8)">
<title>dependencies</title>
<polygon fill="white" stroke="transparent" points="-4,4 -4,-242.8 1144,-242.8 1144,4 -4,4"/>
<text text-anchor="middle" x="570" y="-8.2" font-family="sans-serif" font-size="14.00">dependencies</text>
<g id="clust1" class="cluster">
<title>cluster_AppModule</title>
<polygon fill="none" stroke="black" stroke-dasharray="1,5" points="8,-32.8 8,-230.8 1132,-230.8 1132,-32.8 8,-32.8"/>
</g>
<g id="clust2" class="cluster">
<title>cluster_AppModule_declarations</title>
<polygon fill="none" stroke="black" points="270,-40.8 270,-92.8 1124,-92.8 1124,-40.8 270,-40.8"/>
</g>
<g id="clust9" class="cluster">
<title>cluster_AppModule_imports</title>
<polygon fill="none" stroke="black" points="16,-40.8 16,-92.8 262,-92.8 262,-40.8 16,-40.8"/>
</g>
<g id="clust11" class="cluster">
<title>cluster_AppModule_bootstrap</title>
<polygon fill="none" stroke="black" points="479,-170.8 479,-222.8 603,-222.8 603,-170.8 479,-170.8"/>
</g>
<!-- AddClientComponent -->
<g id="node1" class="node">
<title>AddClientComponent</title>
<polygon fill="#ffffb3" stroke="black" points="1115.66,-84.8 976.34,-84.8 976.34,-48.8 1115.66,-48.8 1115.66,-84.8"/>
<text text-anchor="middle" x="1046" y="-62.6" font-family="Times,serif" font-size="14.00">AddClientComponent</text>
</g>
<!-- AppModule -->
<g id="node7" class="node">
<title>AppModule</title>
<polygon fill="#8dd3c7" stroke="black" points="582.66,-149.8 579.66,-153.8 558.66,-153.8 555.66,-149.8 499.34,-149.8 499.34,-113.8 582.66,-113.8 582.66,-149.8"/>
<text text-anchor="middle" x="541" y="-127.6" font-family="Times,serif" font-size="14.00">AppModule</text>
</g>
<!-- AddClientComponent&#45;&gt;AppModule -->
<g id="edge1" class="edge">
<title>AddClientComponent&#45;&gt;AppModule</title>
<path fill="none" stroke="black" d="M1046,-85.09C1046,-107.01 1046,-140.8 1046,-140.8 1046,-140.8 592.76,-140.8 592.76,-140.8"/>
<polygon fill="black" stroke="black" points="592.76,-137.3 582.76,-140.8 592.76,-144.3 592.76,-137.3"/>
</g>
<!-- AppComponent -->
<g id="node2" class="node">
<title>AppComponent</title>
<polygon fill="#ffffb3" stroke="black" points="957.94,-84.8 852.06,-84.8 852.06,-48.8 957.94,-48.8 957.94,-84.8"/>
<text text-anchor="middle" x="905" y="-62.6" font-family="Times,serif" font-size="14.00">AppComponent</text>
</g>
<!-- AppComponent&#45;&gt;AppModule -->
<g id="edge2" class="edge">
<title>AppComponent&#45;&gt;AppModule</title>
<path fill="none" stroke="black" d="M905,-84.91C905,-104.14 905,-131.8 905,-131.8 905,-131.8 592.76,-131.8 592.76,-131.8"/>
<polygon fill="black" stroke="black" points="592.76,-128.3 582.76,-131.8 592.76,-135.3 592.76,-128.3"/>
</g>
<!-- ColleguesComponent -->
<g id="node3" class="node">
<title>ColleguesComponent</title>
<polygon fill="#ffffb3" stroke="black" points="834.82,-84.8 697.18,-84.8 697.18,-48.8 834.82,-48.8 834.82,-84.8"/>
<text text-anchor="middle" x="766" y="-62.6" font-family="Times,serif" font-size="14.00">ColleguesComponent</text>
</g>
<!-- ColleguesComponent&#45;&gt;AppModule -->
<g id="edge3" class="edge">
<title>ColleguesComponent&#45;&gt;AppModule</title>
<path fill="none" stroke="black" d="M766,-84.83C766,-101.2 766,-122.8 766,-122.8 766,-122.8 592.79,-122.8 592.79,-122.8"/>
<polygon fill="black" stroke="black" points="592.79,-119.3 582.79,-122.8 592.79,-126.3 592.79,-119.3"/>
</g>
<!-- Comp01Component -->
<g id="node4" class="node">
<title>Comp01Component</title>
<polygon fill="#ffffb3" stroke="black" points="679.56,-84.8 550.44,-84.8 550.44,-48.8 679.56,-48.8 679.56,-84.8"/>
<text text-anchor="middle" x="615" y="-62.6" font-family="Times,serif" font-size="14.00">Comp01Component</text>
</g>
<!-- Comp01Component&#45;&gt;AppModule -->
<g id="edge4" class="edge">
<title>Comp01Component&#45;&gt;AppModule</title>
<path fill="none" stroke="black" d="M566.53,-84.91C566.53,-84.91 566.53,-103.79 566.53,-103.79"/>
<polygon fill="black" stroke="black" points="563.03,-103.79 566.53,-113.79 570.03,-103.79 563.03,-103.79"/>
</g>
<!-- Comp02Component -->
<g id="node5" class="node">
<title>Comp02Component</title>
<polygon fill="#ffffb3" stroke="black" points="531.56,-84.8 402.44,-84.8 402.44,-48.8 531.56,-48.8 531.56,-84.8"/>
<text text-anchor="middle" x="467" y="-62.6" font-family="Times,serif" font-size="14.00">Comp02Component</text>
</g>
<!-- Comp02Component&#45;&gt;AppModule -->
<g id="edge5" class="edge">
<title>Comp02Component&#45;&gt;AppModule</title>
<path fill="none" stroke="black" d="M515.47,-84.91C515.47,-84.91 515.47,-103.79 515.47,-103.79"/>
<polygon fill="black" stroke="black" points="511.97,-103.79 515.47,-113.79 518.97,-103.79 511.97,-103.79"/>
</g>
<!-- PostComponent -->
<g id="node6" class="node">
<title>PostComponent</title>
<polygon fill="#ffffb3" stroke="black" points="383.96,-84.8 278.04,-84.8 278.04,-48.8 383.96,-48.8 383.96,-84.8"/>
<text text-anchor="middle" x="331" y="-62.6" font-family="Times,serif" font-size="14.00">PostComponent</text>
</g>
<!-- PostComponent&#45;&gt;AppModule -->
<g id="edge6" class="edge">
<title>PostComponent&#45;&gt;AppModule</title>
<path fill="none" stroke="black" d="M331,-84.83C331,-101.2 331,-122.8 331,-122.8 331,-122.8 489.26,-122.8 489.26,-122.8"/>
<polygon fill="black" stroke="black" points="489.26,-126.3 499.26,-122.8 489.26,-119.3 489.26,-126.3"/>
</g>
<!-- AppComponent  -->
<g id="node10" class="node">
<title>AppComponent </title>
<polygon fill="#80b1d3" stroke="black" points="595.44,-214.8 486.56,-214.8 486.56,-178.8 595.44,-178.8 595.44,-214.8"/>
<text text-anchor="middle" x="541" y="-192.6" font-family="Times,serif" font-size="14.00">AppComponent </text>
</g>
<!-- AppModule&#45;&gt;AppComponent  -->
<g id="edge9" class="edge">
<title>AppModule&#45;&gt;AppComponent </title>
<path fill="none" stroke="black" stroke-dasharray="1,5" d="M541,-149.91C541,-149.91 541,-168.79 541,-168.79"/>
<polygon fill="black" stroke="black" points="537.5,-168.79 541,-178.79 544.5,-168.79 537.5,-168.79"/>
</g>
<!-- SharedModule -->
<g id="node8" class="node">
<title>SharedModule</title>
<polygon fill="#8dd3c7" stroke="black" points="254.43,-84.8 251.43,-88.8 230.43,-88.8 227.43,-84.8 155.57,-84.8 155.57,-48.8 254.43,-48.8 254.43,-84.8"/>
<text text-anchor="middle" x="205" y="-62.6" font-family="Times,serif" font-size="14.00">SharedModule</text>
</g>
<!-- SharedModule&#45;&gt;AppModule -->
<g id="edge7" class="edge">
<title>SharedModule&#45;&gt;AppModule</title>
<path fill="none" stroke="black" d="M205,-84.91C205,-104.14 205,-131.8 205,-131.8 205,-131.8 489.12,-131.8 489.12,-131.8"/>
<polygon fill="black" stroke="black" points="489.12,-135.3 499.12,-131.8 489.12,-128.3 489.12,-135.3"/>
</g>
<!-- WelcomeModule -->
<g id="node9" class="node">
<title>WelcomeModule</title>
<polygon fill="#8dd3c7" stroke="black" points="137.69,-84.8 134.69,-88.8 113.69,-88.8 110.69,-84.8 24.31,-84.8 24.31,-48.8 137.69,-48.8 137.69,-84.8"/>
<text text-anchor="middle" x="81" y="-62.6" font-family="Times,serif" font-size="14.00">WelcomeModule</text>
</g>
<!-- WelcomeModule&#45;&gt;AppModule -->
<g id="edge8" class="edge">
<title>WelcomeModule&#45;&gt;AppModule</title>
<path fill="none" stroke="black" d="M81,-85.09C81,-107.01 81,-140.8 81,-140.8 81,-140.8 488.96,-140.8 488.96,-140.8"/>
<polygon fill="black" stroke="black" points="488.96,-144.3 498.96,-140.8 488.96,-137.3 488.96,-144.3"/>
</g>
</g>
</svg>
