<?xml version="1.0" encoding="UTF-8" standalone="no"?>
<!DOCTYPE svg PUBLIC "-//W3C//DTD SVG 1.1//EN"
 "http://www.w3.org/Graphics/SVG/1.1/DTD/svg11.dtd">
<!-- Generated by graphviz version 5.0.0 (20220707.1540)
 -->
<!-- Title: dependencies Pages: 1 -->
<svg width="1784pt" height="394pt"
 viewBox="0.00 0.00 1784.00 393.80" xmlns="http://www.w3.org/2000/svg" xmlns:xlink="http://www.w3.org/1999/xlink">
<g id="graph0" class="graph" transform="scale(1 1) rotate(0) translate(4 389.8)">
<title>dependencies</title>
<polygon fill="white" stroke="transparent" points="-4,4 -4,-389.8 1780,-389.8 1780,4 -4,4"/>
<text text-anchor="middle" x="888" y="-8.2" font-family="sans-serif" font-size="14.00">dependencies</text>
<g id="clust1" class="cluster">
<title>cluster_AppModule</title>
<polygon fill="none" stroke="black" stroke-dasharray="1,5" points="8,-108.8 8,-377.8 1028,-377.8 1028,-108.8 8,-108.8"/>
</g>
<g id="clust2" class="cluster">
<title>cluster_AppModule_declarations</title>
<polygon fill="none" stroke="black" points="28,-181.8 28,-233.8 882,-233.8 882,-181.8 28,-181.8"/>
</g>
<g id="clust9" class="cluster">
<title>cluster_AppModule_imports</title>
<polygon fill="none" stroke="black" points="890,-116.8 890,-233.8 1020,-233.8 1020,-116.8 890,-116.8"/>
</g>
<g id="clust11" class="cluster">
<title>cluster_AppModule_bootstrap</title>
<polygon fill="none" stroke="black" points="386,-317.8 386,-369.8 510,-369.8 510,-317.8 386,-317.8"/>
</g>
<g id="clust13" class="cluster">
<title>cluster_SharedModule</title>
<polygon fill="none" stroke="black" stroke-dasharray="1,5" points="21,-32.8 21,-100.8 1768,-100.8 1768,-32.8 21,-32.8"/>
</g>
<g id="clust14" class="cluster">
<title>cluster_SharedModule_declarations</title>
<polygon fill="none" stroke="black" points="862,-40.8 862,-92.8 1760,-92.8 1760,-40.8 862,-40.8"/>
</g>
<g id="clust22" class="cluster">
<title>cluster_SharedModule_exports</title>
<polygon fill="none" stroke="black" points="29,-40.8 29,-92.8 854,-92.8 854,-40.8 29,-40.8"/>
</g>
<g id="clust25" class="cluster">
<title>cluster_WelcomeModule</title>
<polygon fill="none" stroke="black" stroke-dasharray="1,5" points="1036,-241.8 1036,-309.8 1288,-309.8 1288,-241.8 1036,-241.8"/>
</g>
<g id="clust26" class="cluster">
<title>cluster_WelcomeModule_declarations</title>
<polygon fill="none" stroke="black" points="1168,-249.8 1168,-301.8 1280,-301.8 1280,-249.8 1168,-249.8"/>
</g>
<g id="clust29" class="cluster">
<title>cluster_WelcomeModule_exports</title>
<polygon fill="none" stroke="black" points="1044,-249.8 1044,-301.8 1160,-301.8 1160,-249.8 1044,-249.8"/>
</g>
<!-- AddClientComponent -->
<g id="node1" class="node">
<title>AddClientComponent</title>
<polygon fill="#ffffb3" stroke="black" points="873.66,-225.8 734.34,-225.8 734.34,-189.8 873.66,-189.8 873.66,-225.8"/>
<text text-anchor="middle" x="804" y="-203.6" font-family="Times,serif" font-size="14.00">AddClientComponent</text>
</g>
<!-- AppModule -->
<g id="node7" class="node">
<title>AppModule</title>
<polygon fill="#8dd3c7" stroke="black" points="489.66,-293.8 486.66,-297.8 465.66,-297.8 462.66,-293.8 406.34,-293.8 406.34,-257.8 489.66,-257.8 489.66,-293.8"/>
<text text-anchor="middle" x="448" y="-271.6" font-family="Times,serif" font-size="14.00">AppModule</text>
</g>
<!-- AddClientComponent&#45;&gt;AppModule -->
<g id="edge1" class="edge">
<title>AddClientComponent&#45;&gt;AppModule</title>
<path fill="none" stroke="black" d="M804,-226.02C804,-246.17 804,-275.8 804,-275.8 804,-275.8 499.88,-275.8 499.88,-275.8"/>
<polygon fill="black" stroke="black" points="499.88,-272.3 489.88,-275.8 499.88,-279.3 499.88,-272.3"/>
</g>
<!-- AppComponent -->
<g id="node2" class="node">
<title>AppComponent</title>
<polygon fill="#ffffb3" stroke="black" points="715.94,-225.8 610.06,-225.8 610.06,-189.8 715.94,-189.8 715.94,-225.8"/>
<text text-anchor="middle" x="663" y="-203.6" font-family="Times,serif" font-size="14.00">AppComponent</text>
</g>
<!-- AppComponent&#45;&gt;AppModule -->
<g id="edge2" class="edge">
<title>AppComponent&#45;&gt;AppModule</title>
<path fill="none" stroke="black" d="M663,-225.82C663,-243.17 663,-266.8 663,-266.8 663,-266.8 499.71,-266.8 499.71,-266.8"/>
<polygon fill="black" stroke="black" points="499.71,-263.3 489.71,-266.8 499.71,-270.3 499.71,-263.3"/>
</g>
<!-- ColleguesComponent -->
<g id="node3" class="node">
<title>ColleguesComponent</title>
<polygon fill="#ffffb3" stroke="black" points="592.82,-225.8 455.18,-225.8 455.18,-189.8 592.82,-189.8 592.82,-225.8"/>
<text text-anchor="middle" x="524" y="-203.6" font-family="Times,serif" font-size="14.00">ColleguesComponent</text>
</g>
<!-- ColleguesComponent&#45;&gt;AppModule -->
<g id="edge3" class="edge">
<title>ColleguesComponent&#45;&gt;AppModule</title>
<path fill="none" stroke="black" d="M472.58,-226.02C472.58,-226.02 472.58,-247.53 472.58,-247.53"/>
<polygon fill="black" stroke="black" points="469.08,-247.53 472.58,-257.53 476.08,-247.53 469.08,-247.53"/>
</g>
<!-- Comp01Component -->
<g id="node4" class="node">
<title>Comp01Component</title>
<polygon fill="#ffffb3" stroke="black" points="437.56,-225.8 308.44,-225.8 308.44,-189.8 437.56,-189.8 437.56,-225.8"/>
<text text-anchor="middle" x="373" y="-203.6" font-family="Times,serif" font-size="14.00">Comp01Component</text>
</g>
<!-- Comp01Component&#45;&gt;AppModule -->
<g id="edge4" class="edge">
<title>Comp01Component&#45;&gt;AppModule</title>
<path fill="none" stroke="black" d="M421.97,-226.02C421.97,-226.02 421.97,-247.53 421.97,-247.53"/>
<polygon fill="black" stroke="black" points="418.47,-247.53 421.97,-257.53 425.47,-247.53 418.47,-247.53"/>
</g>
<!-- Comp02Component -->
<g id="node5" class="node">
<title>Comp02Component</title>
<polygon fill="#ffffb3" stroke="black" points="289.56,-225.8 160.44,-225.8 160.44,-189.8 289.56,-189.8 289.56,-225.8"/>
<text text-anchor="middle" x="225" y="-203.6" font-family="Times,serif" font-size="14.00">Comp02Component</text>
</g>
<!-- Comp02Component&#45;&gt;AppModule -->
<g id="edge5" class="edge">
<title>Comp02Component&#45;&gt;AppModule</title>
<path fill="none" stroke="black" d="M225,-226.07C225,-244.36 225,-269.8 225,-269.8 225,-269.8 396.32,-269.8 396.32,-269.8"/>
<polygon fill="black" stroke="black" points="396.32,-273.3 406.32,-269.8 396.32,-266.3 396.32,-273.3"/>
</g>
<!-- PostComponent -->
<g id="node6" class="node">
<title>PostComponent</title>
<polygon fill="#ffffb3" stroke="black" points="141.96,-225.8 36.04,-225.8 36.04,-189.8 141.96,-189.8 141.96,-225.8"/>
<text text-anchor="middle" x="89" y="-203.6" font-family="Times,serif" font-size="14.00">PostComponent</text>
</g>
<!-- PostComponent&#45;&gt;AppModule -->
<g id="edge6" class="edge">
<title>PostComponent&#45;&gt;AppModule</title>
<path fill="none" stroke="black" d="M89,-226.09C89,-248.01 89,-281.8 89,-281.8 89,-281.8 396.12,-281.8 396.12,-281.8"/>
<polygon fill="black" stroke="black" points="396.12,-285.3 406.12,-281.8 396.12,-278.3 396.12,-285.3"/>
</g>
<!-- AppComponent  -->
<g id="node10" class="node">
<title>AppComponent </title>
<polygon fill="#80b1d3" stroke="black" points="502.44,-361.8 393.56,-361.8 393.56,-325.8 502.44,-325.8 502.44,-361.8"/>
<text text-anchor="middle" x="448" y="-339.6" font-family="Times,serif" font-size="14.00">AppComponent </text>
</g>
<!-- AppModule&#45;&gt;AppComponent  -->
<g id="edge9" class="edge">
<title>AppModule&#45;&gt;AppComponent </title>
<path fill="none" stroke="black" stroke-dasharray="1,5" d="M448,-294.02C448,-294.02 448,-315.53 448,-315.53"/>
<polygon fill="black" stroke="black" points="444.5,-315.53 448,-325.53 451.5,-315.53 444.5,-315.53"/>
</g>
<!-- SharedModule -->
<g id="node8" class="node">
<title>SharedModule</title>
<polygon fill="#8dd3c7" stroke="black" points="1000.43,-160.8 997.43,-164.8 976.43,-164.8 973.43,-160.8 901.57,-160.8 901.57,-124.8 1000.43,-124.8 1000.43,-160.8"/>
<text text-anchor="middle" x="951" y="-138.6" font-family="Times,serif" font-size="14.00">SharedModule</text>
</g>
<!-- SharedModule&#45;&gt;AppModule -->
<g id="edge7" class="edge">
<title>SharedModule&#45;&gt;AppModule</title>
<path fill="none" stroke="black" d="M901.71,-155.8C774.78,-155.8 446.56,-155.8 446.56,-155.8 446.56,-155.8 446.56,-247.57 446.56,-247.57"/>
<polygon fill="black" stroke="black" points="443.06,-247.57 446.56,-257.57 450.06,-247.57 443.06,-247.57"/>
</g>
<!-- WelcomeModule -->
<g id="node9" class="node">
<title>WelcomeModule</title>
<polygon fill="#8dd3c7" stroke="black" points="1011.69,-225.8 1008.69,-229.8 987.69,-229.8 984.69,-225.8 898.31,-225.8 898.31,-189.8 1011.69,-189.8 1011.69,-225.8"/>
<text text-anchor="middle" x="955" y="-203.6" font-family="Times,serif" font-size="14.00">WelcomeModule</text>
</g>
<!-- SharedModule&#45;&gt;WelcomeModule -->
<g id="edge22" class="edge">
<title>SharedModule&#45;&gt;WelcomeModule</title>
<path fill="none" stroke="black" d="M951,-160.91C951,-160.91 951,-179.79 951,-179.79"/>
<polygon fill="black" stroke="black" points="947.5,-179.79 951,-189.79 954.5,-179.79 947.5,-179.79"/>
</g>
<!-- ColleagueComponent  -->
<g id="node17" class="node">
<title>ColleagueComponent </title>
<polygon fill="#fb8072" stroke="black" points="845.59,-84.8 704.41,-84.8 704.41,-48.8 845.59,-48.8 845.59,-84.8"/>
<text text-anchor="middle" x="775" y="-62.6" font-family="Times,serif" font-size="14.00">ColleagueComponent </text>
</g>
<!-- SharedModule&#45;&gt;ColleagueComponent  -->
<g id="edge16" class="edge">
<title>SharedModule&#45;&gt;ColleagueComponent </title>
<path fill="none" stroke="black" stroke-dasharray="5,2" d="M901.38,-130.8C854.06,-130.8 789.98,-130.8 789.98,-130.8 789.98,-130.8 789.98,-94.97 789.98,-94.97"/>
<polygon fill="black" stroke="black" points="793.48,-94.97 789.98,-84.97 786.48,-94.97 793.48,-94.97"/>
</g>
<!-- ColleagueListComponent  -->
<g id="node18" class="node">
<title>ColleagueListComponent </title>
<polygon fill="#fb8072" stroke="black" points="686.87,-84.8 523.13,-84.8 523.13,-48.8 686.87,-48.8 686.87,-84.8"/>
<text text-anchor="middle" x="605" y="-62.6" font-family="Times,serif" font-size="14.00">ColleagueListComponent </text>
</g>
<!-- SharedModule&#45;&gt;ColleagueListComponent  -->
<g id="edge17" class="edge">
<title>SharedModule&#45;&gt;ColleagueListComponent </title>
<path fill="none" stroke="black" stroke-dasharray="5,2" d="M901.72,-135.8C816,-135.8 648.48,-135.8 648.48,-135.8 648.48,-135.8 648.48,-94.93 648.48,-94.93"/>
<polygon fill="black" stroke="black" points="651.98,-94.93 648.48,-84.93 644.98,-94.93 651.98,-94.93"/>
</g>
<!-- CounterComponent  -->
<g id="node19" class="node">
<title>CounterComponent </title>
<polygon fill="#fb8072" stroke="black" points="504.93,-84.8 375.07,-84.8 375.07,-48.8 504.93,-48.8 504.93,-84.8"/>
<text text-anchor="middle" x="440" y="-62.6" font-family="Times,serif" font-size="14.00">CounterComponent </text>
</g>
<!-- SharedModule&#45;&gt;CounterComponent  -->
<g id="edge18" class="edge">
<title>SharedModule&#45;&gt;CounterComponent </title>
<path fill="none" stroke="black" stroke-dasharray="5,2" d="M901.5,-140.8C780.61,-140.8 480.15,-140.8 480.15,-140.8 480.15,-140.8 480.15,-95.09 480.15,-95.09"/>
<polygon fill="black" stroke="black" points="483.65,-95.09 480.15,-85.09 476.65,-95.09 483.65,-95.09"/>
</g>
<!-- LikeHateComponent  -->
<g id="node20" class="node">
<title>LikeHateComponent </title>
<polygon fill="#fb8072" stroke="black" points="357.41,-84.8 220.59,-84.8 220.59,-48.8 357.41,-48.8 357.41,-84.8"/>
<text text-anchor="middle" x="289" y="-62.6" font-family="Times,serif" font-size="14.00">LikeHateComponent </text>
</g>
<!-- SharedModule&#45;&gt;LikeHateComponent  -->
<g id="edge19" class="edge">
<title>SharedModule&#45;&gt;LikeHateComponent </title>
<path fill="none" stroke="black" stroke-dasharray="5,2" d="M901.72,-145.8C755.27,-145.8 332.84,-145.8 332.84,-145.8 332.84,-145.8 332.84,-95.12 332.84,-95.12"/>
<polygon fill="black" stroke="black" points="336.34,-95.12 332.84,-85.12 329.34,-95.12 336.34,-95.12"/>
</g>
<!-- VotingHistoryComponent  -->
<g id="node21" class="node">
<title>VotingHistoryComponent </title>
<polygon fill="#fb8072" stroke="black" points="202.72,-84.8 37.28,-84.8 37.28,-48.8 202.72,-48.8 202.72,-84.8"/>
<text text-anchor="middle" x="120" y="-62.6" font-family="Times,serif" font-size="14.00">VotingHistoryComponent </text>
</g>
<!-- SharedModule&#45;&gt;VotingHistoryComponent  -->
<g id="edge20" class="edge">
<title>SharedModule&#45;&gt;VotingHistoryComponent </title>
<path fill="none" stroke="black" stroke-dasharray="5,2" d="M901.7,-150.8C731.87,-150.8 181.54,-150.8 181.54,-150.8 181.54,-150.8 181.54,-95.03 181.54,-95.03"/>
<polygon fill="black" stroke="black" points="185.04,-95.03 181.54,-85.03 178.04,-95.03 185.04,-95.03"/>
</g>
<!-- WelcomeModule&#45;&gt;AppModule -->
<g id="edge8" class="edge">
<title>WelcomeModule&#45;&gt;AppModule</title>
<path fill="none" stroke="black" d="M955,-226.05C955,-248.82 955,-284.8 955,-284.8 955,-284.8 499.92,-284.8 499.92,-284.8"/>
<polygon fill="black" stroke="black" points="499.92,-281.3 489.92,-284.8 499.92,-288.3 499.92,-281.3"/>
</g>
<!-- WelcomePage  -->
<g id="node23" class="node">
<title>WelcomePage </title>
<polygon fill="#fb8072" stroke="black" points="1152.35,-293.8 1051.65,-293.8 1051.65,-257.8 1152.35,-257.8 1152.35,-293.8"/>
<text text-anchor="middle" x="1102" y="-271.6" font-family="Times,serif" font-size="14.00">WelcomePage </text>
</g>
<!-- WelcomeModule&#45;&gt;WelcomePage  -->
<g id="edge23" class="edge">
<title>WelcomeModule&#45;&gt;WelcomePage </title>
<path fill="none" stroke="black" stroke-dasharray="5,2" d="M1011.65,-213.8C1042.86,-213.8 1075.34,-213.8 1075.34,-213.8 1075.34,-213.8 1075.34,-247.53 1075.34,-247.53"/>
<polygon fill="black" stroke="black" points="1071.84,-247.53 1075.34,-257.53 1078.84,-247.53 1071.84,-247.53"/>
</g>
<!-- ColleagueComponent -->
<g id="node11" class="node">
<title>ColleagueComponent</title>
<polygon fill="#ffffb3" stroke="black" points="1752.09,-84.8 1613.91,-84.8 1613.91,-48.8 1752.09,-48.8 1752.09,-84.8"/>
<text text-anchor="middle" x="1683" y="-62.6" font-family="Times,serif" font-size="14.00">ColleagueComponent</text>
</g>
<!-- ColleagueComponent&#45;&gt;SharedModule -->
<g id="edge10" class="edge">
<title>ColleagueComponent&#45;&gt;SharedModule</title>
<path fill="none" stroke="black" d="M1683,-85.03C1683,-110.81 1683,-154.8 1683,-154.8 1683,-154.8 1010.45,-154.8 1010.45,-154.8"/>
<polygon fill="black" stroke="black" points="1010.45,-151.3 1000.45,-154.8 1010.45,-158.3 1010.45,-151.3"/>
</g>
<!-- ColleagueListComponent -->
<g id="node12" class="node">
<title>ColleagueListComponent</title>
<polygon fill="#ffffb3" stroke="black" points="1595.87,-84.8 1436.13,-84.8 1436.13,-48.8 1595.87,-48.8 1595.87,-84.8"/>
<text text-anchor="middle" x="1516" y="-62.6" font-family="Times,serif" font-size="14.00">ColleagueListComponent</text>
</g>
<!-- ColleagueListComponent&#45;&gt;SharedModule -->
<g id="edge11" class="edge">
<title>ColleagueListComponent&#45;&gt;SharedModule</title>
<path fill="none" stroke="black" d="M1516,-85C1516,-109.16 1516,-148.8 1516,-148.8 1516,-148.8 1010.64,-148.8 1010.64,-148.8"/>
<polygon fill="black" stroke="black" points="1010.64,-145.3 1000.64,-148.8 1010.64,-152.3 1010.64,-145.3"/>
</g>
<!-- CounterComponent -->
<g id="node13" class="node">
<title>CounterComponent</title>
<polygon fill="#ffffb3" stroke="black" points="1418.44,-84.8 1291.56,-84.8 1291.56,-48.8 1418.44,-48.8 1418.44,-84.8"/>
<text text-anchor="middle" x="1355" y="-62.6" font-family="Times,serif" font-size="14.00">CounterComponent</text>
</g>
<!-- CounterComponent&#45;&gt;SharedModule -->
<g id="edge12" class="edge">
<title>CounterComponent&#45;&gt;SharedModule</title>
<path fill="none" stroke="black" d="M1355,-84.81C1355,-107.29 1355,-142.8 1355,-142.8 1355,-142.8 1010.54,-142.8 1010.54,-142.8"/>
<polygon fill="black" stroke="black" points="1010.54,-139.3 1000.54,-142.8 1010.54,-146.3 1010.54,-139.3"/>
</g>
<!-- LikeHateComponent -->
<g id="node14" class="node">
<title>LikeHateComponent</title>
<polygon fill="#ffffb3" stroke="black" points="1273.91,-84.8 1140.09,-84.8 1140.09,-48.8 1273.91,-48.8 1273.91,-84.8"/>
<text text-anchor="middle" x="1207" y="-62.6" font-family="Times,serif" font-size="14.00">LikeHateComponent</text>
</g>
<!-- LikeHateComponent&#45;&gt;SharedModule -->
<g id="edge13" class="edge">
<title>LikeHateComponent&#45;&gt;SharedModule</title>
<path fill="none" stroke="black" d="M1146.23,-84.83C1146.23,-105.57 1146.23,-136.8 1146.23,-136.8 1146.23,-136.8 1010.27,-136.8 1010.27,-136.8"/>
<polygon fill="black" stroke="black" points="1010.27,-133.3 1000.27,-136.8 1010.27,-140.3 1010.27,-133.3"/>
</g>
<!-- ScorePipe -->
<g id="node15" class="node">
<title>ScorePipe</title>
<polygon fill="#ffffb3" stroke="black" points="1122.27,-84.8 1049.73,-84.8 1049.73,-48.8 1122.27,-48.8 1122.27,-84.8"/>
<text text-anchor="middle" x="1086" y="-62.6" font-family="Times,serif" font-size="14.00">ScorePipe</text>
</g>
<!-- ScorePipe&#45;&gt;SharedModule -->
<g id="edge14" class="edge">
<title>ScorePipe&#45;&gt;SharedModule</title>
<path fill="none" stroke="black" d="M1098.86,-84.97C1098.86,-103.89 1098.86,-130.8 1098.86,-130.8 1098.86,-130.8 1010.24,-130.8 1010.24,-130.8"/>
<polygon fill="black" stroke="black" points="1010.24,-127.3 1000.24,-130.8 1010.24,-134.3 1010.24,-127.3"/>
</g>
<!-- VotingHistoryComponent -->
<g id="node16" class="node">
<title>VotingHistoryComponent</title>
<polygon fill="#ffffb3" stroke="black" points="1032.22,-84.8 869.78,-84.8 869.78,-48.8 1032.22,-48.8 1032.22,-84.8"/>
<text text-anchor="middle" x="951" y="-62.6" font-family="Times,serif" font-size="14.00">VotingHistoryComponent</text>
</g>
<!-- VotingHistoryComponent&#45;&gt;SharedModule -->
<g id="edge15" class="edge">
<title>VotingHistoryComponent&#45;&gt;SharedModule</title>
<path fill="none" stroke="black" d="M951,-84.81C951,-84.81 951,-114.65 951,-114.65"/>
<polygon fill="black" stroke="black" points="947.5,-114.65 951,-124.65 954.5,-114.65 947.5,-114.65"/>
</g>
<!-- WelcomePage -->
<g id="node22" class="node">
<title>WelcomePage</title>
<polygon fill="#ffffb3" stroke="black" points="1272.35,-293.8 1175.65,-293.8 1175.65,-257.8 1272.35,-257.8 1272.35,-293.8"/>
<text text-anchor="middle" x="1224" y="-271.6" font-family="Times,serif" font-size="14.00">WelcomePage</text>
</g>
<!-- WelcomePage&#45;&gt;WelcomeModule -->
<g id="edge21" class="edge">
<title>WelcomePage&#45;&gt;WelcomeModule</title>
<path fill="none" stroke="black" d="M1224,-257.51C1224,-235.59 1224,-201.8 1224,-201.8 1224,-201.8 1021.72,-201.8 1021.72,-201.8"/>
<polygon fill="black" stroke="black" points="1021.72,-198.3 1011.72,-201.8 1021.72,-205.3 1021.72,-198.3"/>
</g>
</g>
</svg>
